# xmcd
#
# Track frame offsets:
#	150
#	14127
#	29135
#	44185
#	54327
#	66442
#	81297
#	88967
#	97042
#	109792
#	124597
#	141252
#	148610
#	156225
#	163160
#	173490
#	186245
#	200827
#	216025
#
# Disc length: 3088 seconds
#
# Revision: 0
# Processed by: cddbd v1.5.2PL0 Copyright (c) Steve Scherf et al.
# Submitted via: EasyCDDAExtractor 16.0.8.2
#
DISCID=2b0c0e13
DTITLE=Συλλογικός δίσκος - Αυθεντικά Ηπειρώτικα Χουλιαράδες 2
DYEAR=1994
DGENRE=Παραδοσιακή
TTITLE0=Άγνωστος - Ένα είν' τ' αηδονάκι
TTITLE1=Άγνωστος - Οι Σιαμάδες
TTITLE2=Χορωδία - Ο Γεροσόλυμος [1]
TTITLE3=Άγνωστος - Ο Γεροσόλυμος [2]
TTITLE4=Χορωδία - Μπαίνω μέσ' στ' αμπέλι
TTITLE5=Χορωδία - Μοιρολόϊ [1]
TTITLE6=Άγνωστος - Μοιρολόϊ [2]
TTITLE7=Άγνωστος - Το λέν' οι κούκοι στα βουνά
TTITLE8=Χορωδία - Ξύπνα περδικομάτα μου
TTITLE9=Άγνωστος - Του Μάρκου Μπότσαρη
TTITLE10=Χορωδία - Οι Κύκλες [1]
TTITLE11=Χορωδία - Οι Κύκλες [2]
TTITLE12=Χορωδία - Η Αβγένω
TTITLE13=Άγνωστος - Ο Ντεληγιώργης
TTITLE14=Χορωδία - Ο Δημήτρης Τσιάρας
TTITLE15=Χορωδία - Πού ήσουν πουλί πουλάκι μου
TTITLE16=Χορωδία - Σε τούτ' την τάβλα-Φίλοι μ' γιατί δεν τρώτε
TTITLE17=Άγνωστος - Η Μπούλκω
TTITLE18=Άγνωστος - Παλιά μου χρόνια και καιροί
EXTD=
EXTT0=
EXTT1=
EXTT2=
EXTT3=
EXTT4=
EXTT5=
EXTT6=
EXTT7=
EXTT8=
EXTT9=
EXTT10=
EXTT11=
EXTT12=
EXTT13=
EXTT14=
EXTT15=
EXTT16=
EXTT17=
EXTT18=
PLAYORDER=
